<?xml version="1.0" standalone="no"?>
<!DOCTYPE svg PUBLIC "-//W3C//DTD SVG 20010904//EN"
 "http://www.w3.org/TR/2001/REC-SVG-20010904/DTD/svg10.dtd">
<svg version="1.0" xmlns="http://www.w3.org/2000/svg"
 width="512.000000pt" height="447.000000pt" viewBox="0 0 512.000000 447.000000"
 preserveAspectRatio="xMidYMid meet">

<g transform="translate(0.000000,447.000000) scale(0.100000,-0.100000)"
fill="#000000" stroke="none">
<path d="M0 2235 l0 -2235 2560 0 2560 0 0 2235 0 2235 -2560 0 -2560 0 0
-2235z m2115 2055 c133 -25 166 -33 255 -59 76 -24 92 -30 190 -74 30 -13 73
-33 95 -42 151 -68 391 -255 529 -415 45 -52 169 -237 190 -283 8 -18 28 -63
45 -100 17 -38 31 -73 31 -78 0 -5 4 -17 10 -27 19 -34 62 -219 67 -292 6 -89
16 -100 88 -100 111 0 405 -65 540 -120 399 -162 704 -456 818 -790 38 -112
50 -186 50 -320 1 -146 -15 -234 -59 -343 -13 -32 -24 -63 -24 -68 0 -19 -93
-173 -144 -238 -75 -97 -191 -209 -275 -266 -41 -28 -79 -57 -84 -67 -8 -12 2
-55 42 -176 57 -171 60 -208 18 -237 -41 -28 -64 -21 -362 120 -189 89 -187
88 -251 75 -256 -55 -595 -59 -794 -10 -19 5 -73 17 -120 28 -157 37 -365 124
-494 207 -69 44 -199 148 -254 203 -80 80 -192 233 -226 310 -10 23 -24 43
-30 43 -6 1 -89 3 -184 4 -236 4 -319 16 -519 79 -94 30 -125 32 -143 12 -6
-8 -46 -38 -88 -67 -42 -29 -147 -100 -232 -158 -268 -182 -298 -201 -323
-201 -34 0 -77 46 -77 82 0 29 52 133 253 507 l51 95 -44 35 c-66 53 -232 219
-271 271 -18 25 -36 47 -40 50 -5 4 -61 88 -97 145 -26 42 -90 183 -114 255
-63 179 -86 367 -69 555 13 133 27 220 46 280 7 22 18 58 25 80 18 58 35 97
90 211 129 262 369 509 655 673 48 28 91 51 96 51 4 0 20 6 36 14 61 32 144
66 158 66 9 0 23 4 33 9 16 9 56 21 187 55 173 44 523 52 720 16z"/>
<path d="M1575 4135 c-55 -7 -129 -20 -165 -30 -36 -9 -79 -20 -95 -24 -17 -4
-40 -13 -52 -19 -12 -7 -29 -12 -37 -12 -9 0 -41 -11 -73 -26 -228 -100 -363
-191 -518 -348 -66 -66 -142 -154 -169 -195 -55 -83 -141 -247 -157 -301 -6
-19 -17 -57 -26 -85 -21 -70 -32 -134 -43 -255 -31 -337 59 -631 273 -898 33
-42 56 -80 53 -88 -3 -9 1 -14 14 -14 10 0 45 -25 77 -56 32 -31 92 -81 133
-112 41 -31 80 -63 87 -71 31 -40 7 -107 -121 -333 -14 -26 -26 -49 -26 -52 0
-16 34 3 163 92 256 176 229 166 346 127 173 -57 233 -71 361 -84 132 -14 297
-14 305 -1 3 6 -1 49 -10 97 -12 62 -15 112 -10 172 8 105 41 274 64 319 4 9
29 60 55 113 25 52 64 120 86 150 60 79 215 234 290 288 57 41 236 151 246
151 2 0 29 12 61 26 107 48 124 54 141 54 10 0 22 4 28 9 27 27 347 91 454 91
36 0 52 4 56 15 6 16 -19 166 -41 250 -118 434 -491 813 -955 968 -279 92
-517 117 -795 82z m79 -337 c21 -30 20 -56 -5 -98 -23 -38 -33 -118 -17 -137
6 -8 33 -13 62 -13 53 0 115 -13 152 -31 38 -19 55 -6 95 71 32 60 39 82 34
112 -11 76 37 127 88 93 51 -33 47 -91 -8 -125 -34 -21 -68 -77 -101 -169 -13
-34 -12 -36 24 -67 20 -18 39 -33 42 -34 3 0 52 43 108 96 83 78 102 101 102
124 0 103 95 157 161 91 23 -23 29 -38 29 -72 0 -35 -6 -47 -36 -76 -28 -26
-43 -33 -69 -31 -29 3 -45 -7 -128 -82 -121 -109 -122 -111 -96 -154 11 -19
28 -58 39 -87 l19 -54 121 3 c112 3 122 5 145 28 32 32 77 32 99 -1 24 -36 20
-70 -10 -94 -33 -26 -54 -26 -86 -1 -22 17 -37 19 -122 14 -54 -2 -106 -8
-115 -14 -14 -7 -20 -27 -25 -87 -4 -43 -9 -94 -12 -114 l-6 -36 69 -28 c37
-15 79 -33 93 -40 47 -24 87 -27 120 -10 39 20 72 13 106 -20 58 -58 5 -166
-83 -165 -36 1 -57 17 -76 61 -14 35 -21 39 -137 86 -19 8 -42 18 -51 23 -9 5
-32 12 -51 15 -33 6 -37 4 -58 -29 -12 -20 -37 -54 -55 -77 -36 -43 -36 -50 0
-109 12 -19 24 -43 28 -53 4 -9 22 -27 42 -38 26 -16 35 -28 35 -48 0 -30 -16
-51 -39 -51 -29 0 -42 17 -46 56 -3 39 -71 174 -87 174 -21 0 -138 -76 -134
-87 3 -6 8 -40 11 -75 9 -94 28 -188 37 -188 16 0 48 -65 42 -85 -25 -82 -124
-70 -124 16 0 21 4 41 10 44 13 8 13 79 0 142 -5 26 -12 69 -15 96 l-6 47 -97
0 -97 0 -17 -62 c-40 -153 -41 -158 -29 -184 17 -38 13 -75 -11 -101 -27 -29
-55 -29 -85 -1 -34 32 -31 76 10 115 28 26 37 48 60 139 15 59 26 108 24 109
-1 1 -26 16 -56 34 -63 38 -121 90 -153 137 -29 42 -33 41 -168 -48 -104 -69
-128 -96 -129 -151 -2 -56 -70 -102 -138 -92 -36 5 -49 13 -73 47 -80 110 21
255 144 208 23 -8 39 -1 139 65 61 40 121 80 131 88 19 13 19 16 3 80 -9 36
-17 83 -17 104 0 45 -6 54 -43 71 -34 15 -72 15 -98 1 -50 -27 -80 66 -32 98
20 14 24 13 48 -11 14 -14 43 -31 66 -37 34 -11 42 -10 56 3 22 23 30 106 11
121 -131 104 -142 111 -179 110 -71 -3 -108 79 -57 127 38 35 77 20 102 -41
14 -34 37 -58 111 -115 64 -49 70 -49 104 4 16 26 43 62 60 80 17 19 27 40 24
48 -17 44 -130 199 -148 202 -35 7 -55 33 -55 73 0 65 60 90 106 44 21 -21 24
-31 18 -60 -5 -30 1 -46 56 -135 34 -55 66 -100 72 -100 6 0 39 14 73 31 l63
31 7 65 c6 57 4 69 -14 94 -41 56 -17 119 45 119 23 0 38 -7 48 -22z"/>
<path d="M3235 2645 c-207 -24 -351 -67 -555 -167 -117 -56 -264 -162 -353
-252 -110 -112 -209 -284 -248 -431 -29 -109 -31 -313 -5 -400 45 -147 78
-221 148 -324 47 -69 213 -230 294 -283 66 -43 233 -132 279 -149 11 -4 43
-16 70 -27 234 -95 649 -124 930 -66 154 32 172 31 271 -16 187 -88 234 -108
234 -98 0 2 -13 46 -30 98 -35 112 -36 129 -10 163 11 14 20 28 20 31 0 3
-134 7 -297 8 -296 3 -298 3 -301 24 -2 17 16 36 80 86 92 71 120 88 191 115
59 22 97 55 97 83 0 11 -14 48 -31 82 -28 56 -29 62 -15 77 15 14 24 12 109
-33 122 -64 155 -90 177 -139 22 -51 50 -143 50 -167 0 -30 21 -80 34 -80 7 0
42 23 77 51 269 214 409 475 409 764 0 90 -19 208 -41 247 -5 10 -9 23 -9 29
0 18 -55 131 -94 191 -80 125 -274 303 -421 386 -64 36 -185 92 -199 92 -7 0
-16 3 -20 7 -21 21 -278 84 -417 102 -108 14 -283 12 -424 -4z m409 -180 c122
-37 213 -101 285 -199 63 -87 91 -168 91 -266 0 -60 5 -96 30 -250 11 -71 48
-180 67 -202 22 -25 12 -49 -32 -78 -56 -36 -86 -47 -245 -88 -43 -12 -97 -35
-127 -55 -136 -92 -263 -93 -396 -5 -36 24 -88 47 -135 60 -42 11 -90 23 -107
28 -39 10 -135 58 -157 78 -24 20 -23 45 5 90 38 61 72 224 81 392 9 163 52
268 150 365 57 57 136 105 221 133 47 16 213 14 269 -3z m-437 -1182 c9 -16
72 -111 138 -213 67 -102 130 -200 140 -218 11 -18 24 -31 30 -29 9 3 92 133
116 182 5 11 15 29 22 40 114 189 149 244 161 254 11 9 19 5 41 -21 15 -17 31
-41 36 -52 13 -29 33 -61 46 -77 23 -28 53 -90 53 -108 0 -14 -14 -24 -47 -37
-27 -9 -52 -21 -57 -26 -6 -4 -17 -8 -25 -8 -7 0 -86 -54 -174 -121 -87 -66
-165 -123 -172 -125 -7 -3 -59 30 -115 73 -210 158 -230 173 -237 173 -3 0
-39 12 -80 27 -57 21 -73 32 -73 47 0 35 143 266 165 266 8 0 22 -12 32 -27z
m-207 -102 c0 -10 -11 -39 -25 -62 -32 -56 -32 -99 -2 -127 13 -12 64 -37 114
-55 71 -25 110 -47 177 -100 135 -106 144 -102 -254 -102 l-335 0 -3 23 c-2
12 11 82 29 155 29 121 35 135 69 168 21 20 57 46 81 58 24 12 58 31 74 41 41
25 75 26 75 1z"/>
<path d="M3307 2077 c-29 -62 -79 -114 -168 -173 -70 -46 -83 -62 -68 -85 5
-8 9 -30 9 -50 0 -42 30 -86 63 -91 18 -2 27 -18 48 -80 31 -88 68 -146 132
-205 94 -87 192 -105 300 -54 61 29 157 114 140 124 -12 7 -131 -11 -181 -27
-48 -17 -96 -7 -112 24 -15 27 -12 37 12 60 26 24 93 27 122 5 22 -17 70 -13
154 12 66 19 98 46 114 97 9 26 23 45 43 56 36 19 62 82 51 124 -7 30 -3 28
-111 52 -102 23 -212 69 -323 136 -34 21 -65 38 -68 38 -4 0 -27 17 -53 38
-71 59 -76 59 -104 -1z m413 -245 c14 -11 19 -23 14 -35 -5 -14 -16 -17 -53
-15 -38 3 -47 7 -49 24 -2 16 4 25 25 32 38 14 38 14 63 -6z m-330 -7 c19 -23
-5 -45 -50 -45 -41 0 -59 22 -39 46 15 19 73 18 89 -1z"/>
</g>
</svg>
