<?xml version="1.0" standalone="no"?>
<!DOCTYPE svg PUBLIC "-//W3C//DTD SVG 20010904//EN"
 "http://www.w3.org/TR/2001/REC-SVG-20010904/DTD/svg10.dtd">
<svg version="1.0" xmlns="http://www.w3.org/2000/svg"
 width="512.000000pt" height="447.000000pt" viewBox="0 0 512.000000 447.000000"
 preserveAspectRatio="xMidYMid meet">

<g transform="translate(0.000000,447.000000) scale(0.100000,-0.100000)"
fill="#000000" stroke="none">
<path d="M1670 4309 c-178 -11 -197 -14 -390 -65 -30 -9 -63 -19 -72 -25 -10
-5 -24 -9 -33 -9 -14 0 -97 -34 -158 -66 -16 -8 -32 -14 -36 -14 -5 0 -48 -23
-96 -51 -286 -164 -526 -411 -655 -673 -55 -114 -72 -153 -90 -211 -7 -22 -18
-58 -25 -80 -19 -60 -33 -147 -46 -280 -17 -188 6 -376 69 -555 24 -72 88
-213 114 -255 36 -57 92 -141 97 -145 4 -3 22 -25 40 -50 39 -52 205 -218 271
-271 l44 -35 -51 -95 c-275 -512 -276 -513 -227 -563 49 -48 40 -52 374 175
85 58 190 129 232 158 42 29 82 59 88 67 18 20 49 18 143 -12 200 -63 283 -75
519 -79 95 -1 178 -3 184 -4 6 0 20 -20 30 -43 34 -77 146 -230 226 -310 55
-55 185 -159 254 -203 129 -83 337 -170 494 -207 47 -11 101 -23 120 -28 199
-49 538 -45 794 10 64 13 62 14 251 -75 298 -141 321 -148 362 -120 42 29 39
66 -18 237 -40 121 -50 164 -42 176 5 10 43 39 84 67 84 57 200 169 275 266
51 65 144 219 144 238 0 5 11 36 24 68 44 109 60 197 59 343 0 199 -38 336
-147 528 -59 105 -204 264 -326 358 -130 100 -320 202 -465 249 -143 47 -381
95 -470 95 -72 0 -82 11 -88 100 -5 73 -48 258 -67 292 -6 10 -10 22 -10 27 0
5 -14 40 -31 78 -17 37 -37 82 -45 100 -21 46 -145 231 -190 283 -138 160
-378 347 -529 415 -22 9 -65 29 -95 42 -98 44 -114 50 -190 74 -229 69 -440
92 -700 78z m334 -170 c142 -17 346 -71 476 -126 413 -177 738 -533 845 -928
22 -84 47 -234 41 -250 -4 -11 -20 -15 -56 -15 -107 0 -427 -64 -454 -91 -6
-5 -18 -9 -28 -9 -17 0 -34 -6 -141 -54 -32 -14 -59 -26 -61 -26 -10 0 -189
-110 -246 -151 -75 -54 -230 -209 -290 -288 -22 -30 -61 -98 -86 -150 -26 -53
-51 -104 -55 -113 -23 -45 -56 -214 -64 -319 -5 -60 -2 -110 10 -172 9 -48 13
-91 10 -97 -8 -13 -173 -13 -305 1 -128 13 -188 27 -361 84 -117 39 -90 49
-346 -127 -129 -89 -163 -108 -163 -92 0 3 12 26 26 52 128 226 152 293 121
333 -7 8 -46 40 -87 71 -41 31 -101 81 -133 112 -32 31 -67 56 -77 56 -13 0
-17 5 -14 14 3 8 -20 46 -53 88 -214 267 -304 561 -273 898 11 121 22 185 43
255 9 28 20 66 26 85 16 54 102 218 157 301 27 41 103 129 169 195 155 157
290 248 518 348 32 15 64 26 73 26 8 0 25 5 37 12 12 6 35 15 52 19 16 4 59
15 95 24 154 40 418 55 594 34z m1655 -1490 c139 -18 396 -81 417 -102 4 -4
13 -7 20 -7 14 0 135 -56 199 -92 147 -83 341 -261 421 -386 39 -60 94 -173
94 -191 0 -6 4 -19 9 -29 22 -39 41 -157 41 -247 0 -289 -140 -550 -409 -764
-35 -28 -70 -51 -77 -51 -13 0 -34 50 -34 80 0 24 -28 116 -50 167 -22 49 -55
75 -177 139 -85 45 -94 47 -109 33 -14 -15 -13 -21 15 -77 17 -34 31 -71 31
-82 0 -28 -38 -61 -97 -83 -71 -27 -99 -44 -191 -115 -64 -50 -82 -69 -80 -86
3 -21 5 -21 301 -24 163 -1 297 -5 297 -8 0 -3 -9 -17 -20 -31 -26 -34 -25
-51 10 -163 17 -52 30 -96 30 -98 0 -10 -47 10 -234 98 -99 47 -117 48 -271
16 -281 -58 -696 -29 -930 66 -27 11 -59 23 -70 27 -46 17 -213 106 -279 149
-81 53 -247 214 -294 283 -70 103 -103 177 -148 324 -26 87 -24 291 5 400 39
147 138 319 248 431 151 154 414 305 633 365 221 61 499 84 699 58z"/>
<path d="M1557 3802 c-23 -25 -21 -67 4 -101 18 -25 20 -37 14 -94 l-7 -65
-63 -31 c-34 -17 -67 -31 -73 -31 -6 0 -38 45 -72 100 -55 89 -61 105 -56 135
6 29 3 39 -18 60 -14 14 -33 25 -43 25 -80 0 -87 -127 -8 -142 18 -3 131 -158
148 -202 3 -8 -7 -29 -24 -48 -17 -18 -44 -54 -60 -80 -34 -53 -40 -53 -104
-4 -74 57 -97 81 -111 115 -25 61 -64 76 -102 41 -51 -48 -14 -130 57 -127 37
1 48 -6 179 -110 19 -15 11 -98 -11 -121 -14 -13 -22 -14 -56 -3 -23 6 -52 23
-66 37 -24 24 -28 25 -48 11 -48 -32 -18 -125 32 -98 26 14 64 14 98 -1 37
-17 43 -26 43 -71 0 -21 8 -68 17 -104 16 -64 16 -67 -3 -80 -10 -8 -70 -48
-131 -88 -100 -66 -116 -73 -139 -65 -39 15 -76 12 -108 -9 -72 -47 -87 -129
-36 -199 24 -34 37 -42 73 -47 68 -10 136 36 138 92 1 55 25 82 129 151 135
89 139 90 168 48 32 -47 90 -99 153 -137 30 -18 55 -33 56 -34 2 -1 -9 -50
-24 -109 -23 -91 -32 -113 -60 -139 -41 -39 -44 -83 -10 -115 30 -28 58 -28
85 1 24 26 28 63 11 101 -12 26 -11 31 29 184 l17 62 97 0 97 0 6 -47 c3 -27
10 -70 15 -96 13 -63 13 -134 0 -142 -6 -3 -10 -23 -10 -44 0 -86 99 -98 124
-16 6 20 -26 85 -42 85 -9 0 -28 94 -37 188 -3 35 -8 69 -11 75 -4 11 113 87
134 87 16 0 84 -135 87 -174 4 -39 17 -56 46 -56 23 0 39 21 39 51 0 20 -9 32
-35 48 -20 11 -38 29 -42 38 -4 10 -16 34 -28 53 -36 59 -36 66 0 109 18 23
43 57 55 77 21 33 25 35 58 29 19 -3 42 -10 51 -15 9 -5 32 -15 51 -23 116
-47 123 -51 137 -86 19 -44 40 -60 76 -61 88 -1 141 107 83 165 -34 33 -67 40
-106 20 -33 -17 -73 -14 -120 10 -14 7 -56 25 -93 40 l-69 28 6 36 c3 20 8 71
12 114 5 60 11 80 25 87 9 6 61 12 115 14 85 5 100 3 122 -14 32 -25 53 -25
86 1 30 24 34 58 10 94 -22 33 -67 33 -99 1 -23 -23 -33 -25 -145 -28 l-121
-3 -19 54 c-11 29 -28 68 -39 87 -26 43 -25 45 96 154 83 75 99 85 128 82 26
-2 41 5 69 31 30 29 36 41 36 76 0 34 -6 49 -29 72 -66 66 -161 12 -161 -91 0
-23 -19 -46 -102 -124 -56 -53 -105 -96 -108 -96 -3 1 -22 16 -42 34 -36 31
-37 33 -24 67 33 92 67 148 101 169 55 34 59 92 8 125 -51 34 -99 -17 -88 -93
5 -30 -2 -52 -34 -112 -40 -77 -57 -90 -95 -71 -37 18 -99 31 -152 31 -29 0
-56 5 -62 13 -16 19 -6 99 17 137 25 42 26 68 5 98 -19 28 -74 30 -97 4z"/>
<path d="M3375 2468 c-85 -28 -164 -76 -221 -133 -98 -97 -141 -202 -150 -365
-9 -168 -43 -331 -81 -392 -28 -45 -29 -70 -5 -90 22 -20 118 -68 157 -78 17
-5 65 -17 107 -28 47 -13 99 -36 135 -60 133 -88 260 -87 396 5 30 20 84 43
127 55 159 41 189 52 245 88 44 29 54 53 32 78 -19 22 -56 131 -67 202 -25
154 -30 190 -30 250 0 98 -28 179 -91 266 -72 98 -163 162 -285 199 -56 17
-222 19 -269 3z m36 -390 c26 -21 49 -38 53 -38 3 0 34 -17 68 -38 111 -67
221 -113 323 -136 108 -24 104 -22 111 -52 11 -42 -15 -105 -51 -124 -20 -11
-34 -30 -43 -56 -16 -51 -48 -78 -114 -97 -84 -25 -132 -29 -154 -12 -29 22
-96 19 -122 -5 -24 -23 -27 -33 -12 -60 16 -31 64 -41 112 -24 50 16 169 34
181 27 17 -10 -79 -95 -140 -124 -108 -51 -206 -33 -300 54 -64 59 -101 117
-132 205 -21 62 -30 78 -48 80 -33 5 -63 49 -63 91 0 20 -4 42 -9 50 -15 23
-2 39 68 85 89 59 139 111 168 173 28 60 33 60 104 1z"/>
<path d="M3657 1838 c-21 -7 -27 -16 -25 -32 2 -17 11 -21 49 -24 37 -2 48 1
53 15 5 12 0 24 -14 35 -25 20 -25 20 -63 6z"/>
<path d="M3301 1826 c-20 -24 -2 -46 39 -46 45 0 69 22 50 45 -16 19 -74 20
-89 1z"/>
<path d="M3127 1258 c-74 -116 -117 -195 -117 -214 0 -15 16 -26 73 -47 41
-15 77 -27 80 -27 7 0 27 -15 237 -173 56 -43 108 -76 115 -73 7 2 85 59 172
125 88 67 167 121 174 121 8 0 19 4 25 8 5 5 30 17 57 26 33 13 47 23 47 37 0
18 -30 80 -53 108 -13 16 -33 48 -46 77 -5 11 -21 35 -36 52 -22 26 -30 30
-41 21 -12 -10 -47 -65 -161 -254 -7 -11 -17 -29 -22 -40 -24 -49 -107 -179
-116 -182 -6 -2 -19 11 -30 29 -10 18 -73 116 -140 218 -66 102 -129 197 -138
213 -10 15 -24 27 -32 27 -8 0 -29 -24 -48 -52z"/>
<path d="M2925 1180 c-16 -10 -50 -29 -74 -41 -24 -12 -60 -38 -81 -58 -34
-33 -40 -47 -69 -168 -18 -73 -31 -143 -29 -155 l3 -23 335 0 c398 0 389 -4
254 102 -67 53 -106 75 -177 100 -50 18 -101 43 -114 55 -30 28 -30 71 2 127
32 55 33 81 3 80 -13 0 -36 -9 -53 -19z"/>
</g>
</svg>
